<mxfile host="Electron" modified="2024-03-14T09:31:49.660Z" agent="Mozilla/5.0 (X11; Linux x86_64) AppleWebKit/537.36 (KHTML, like Gecko) draw.io/23.1.5 Chrome/120.0.6099.109 Electron/28.1.0 Safari/537.36" etag="o4609juQc8mQIOTvUq3R" version="23.1.5" type="device">
  <diagram name="Page-1" id="3GYq-5Nhz2DGC2U4besP">
    <mxGraphModel dx="1114" dy="1027" grid="1" gridSize="10" guides="1" tooltips="1" connect="1" arrows="1" fold="1" page="1" pageScale="1" pageWidth="1169" pageHeight="827" math="0" shadow="0">
      <root>
        <mxCell id="0" />
        <mxCell id="1" parent="0" />
        <mxCell id="fnDxifPwlxCKZiobhOqW-1" value="b5" style="endArrow=classic;html=1;rounded=0;" edge="1" parent="1">
          <mxGeometry width="50" height="50" relative="1" as="geometry">
            <mxPoint x="92" y="81" as="sourcePoint" />
            <mxPoint x="242" y="81" as="targetPoint" />
          </mxGeometry>
        </mxCell>
        <mxCell id="fnDxifPwlxCKZiobhOqW-2" value="b6" style="endArrow=classic;html=1;rounded=0;" edge="1" parent="1">
          <mxGeometry width="50" height="50" relative="1" as="geometry">
            <mxPoint x="242" y="81" as="sourcePoint" />
            <mxPoint x="242" y="231" as="targetPoint" />
          </mxGeometry>
        </mxCell>
        <mxCell id="fnDxifPwlxCKZiobhOqW-3" value="b4" style="endArrow=classic;html=1;rounded=0;" edge="1" parent="1">
          <mxGeometry width="50" height="50" relative="1" as="geometry">
            <mxPoint x="242" y="231" as="sourcePoint" />
            <mxPoint x="92" y="81" as="targetPoint" />
          </mxGeometry>
        </mxCell>
        <mxCell id="fnDxifPwlxCKZiobhOqW-4" value="b1" style="endArrow=classic;html=1;rounded=0;" edge="1" parent="1">
          <mxGeometry width="50" height="50" relative="1" as="geometry">
            <mxPoint x="232" y="241" as="sourcePoint" />
            <mxPoint x="82" y="241" as="targetPoint" />
          </mxGeometry>
        </mxCell>
        <mxCell id="fnDxifPwlxCKZiobhOqW-5" value="b2" style="endArrow=classic;html=1;rounded=0;" edge="1" parent="1" source="fnDxifPwlxCKZiobhOqW-14">
          <mxGeometry width="50" height="50" relative="1" as="geometry">
            <mxPoint x="82" y="241" as="sourcePoint" />
            <mxPoint x="82" y="91" as="targetPoint" />
          </mxGeometry>
        </mxCell>
        <mxCell id="fnDxifPwlxCKZiobhOqW-6" value="b3" style="endArrow=classic;html=1;rounded=0;" edge="1" parent="1">
          <mxGeometry width="50" height="50" relative="1" as="geometry">
            <mxPoint x="82" y="91" as="sourcePoint" />
            <mxPoint x="232" y="241" as="targetPoint" />
          </mxGeometry>
        </mxCell>
        <mxCell id="fnDxifPwlxCKZiobhOqW-10" value="n3" style="shape=waypoint;sketch=0;fillStyle=solid;size=6;pointerEvents=1;points=[];fillColor=none;resizable=0;rotatable=0;perimeter=centerPerimeter;snapToPoint=1;spacingTop=20;" vertex="1" parent="1">
          <mxGeometry x="232" y="231" width="20" height="20" as="geometry" />
        </mxCell>
        <mxCell id="fnDxifPwlxCKZiobhOqW-11" value="n1" style="shape=waypoint;sketch=0;fillStyle=solid;size=6;pointerEvents=1;points=[];fillColor=none;resizable=0;rotatable=0;perimeter=centerPerimeter;snapToPoint=1;labelPadding=0;spacingTop=-20;" vertex="1" parent="1">
          <mxGeometry x="72" y="71" width="20" height="20" as="geometry" />
        </mxCell>
        <mxCell id="fnDxifPwlxCKZiobhOqW-13" value="n2&#xa;" style="shape=waypoint;sketch=0;fillStyle=solid;size=6;pointerEvents=1;points=[];fillColor=none;resizable=0;rotatable=0;perimeter=centerPerimeter;snapToPoint=1;spacingTop=-20;" vertex="1" parent="1">
          <mxGeometry x="232" y="71" width="20" height="20" as="geometry" />
        </mxCell>
        <mxCell id="fnDxifPwlxCKZiobhOqW-15" value="" style="endArrow=classic;html=1;rounded=0;" edge="1" parent="1" target="fnDxifPwlxCKZiobhOqW-14">
          <mxGeometry width="50" height="50" relative="1" as="geometry">
            <mxPoint x="82" y="241" as="sourcePoint" />
            <mxPoint x="82" y="91" as="targetPoint" />
          </mxGeometry>
        </mxCell>
        <mxCell id="fnDxifPwlxCKZiobhOqW-14" value="n4" style="shape=waypoint;sketch=0;fillStyle=solid;size=6;pointerEvents=1;points=[];fillColor=none;resizable=0;rotatable=0;perimeter=centerPerimeter;snapToPoint=1;spacingTop=20;" vertex="1" parent="1">
          <mxGeometry x="72" y="231" width="20" height="20" as="geometry" />
        </mxCell>
        <mxCell id="fnDxifPwlxCKZiobhOqW-16" value="F1" style="text;strokeColor=none;align=center;fillColor=none;html=1;verticalAlign=middle;whiteSpace=wrap;rounded=0;" vertex="1" parent="1">
          <mxGeometry x="92" y="180" width="60" height="30" as="geometry" />
        </mxCell>
        <mxCell id="fnDxifPwlxCKZiobhOqW-17" value="F2" style="text;strokeColor=none;align=center;fillColor=none;html=1;verticalAlign=middle;whiteSpace=wrap;rounded=0;" vertex="1" parent="1">
          <mxGeometry x="160" y="110" width="60" height="30" as="geometry" />
        </mxCell>
        <mxCell id="fnDxifPwlxCKZiobhOqW-18" value="&lt;br&gt;&lt;table&gt;&lt;tbody&gt;&lt;tr&gt;&lt;td&gt;&lt;b&gt;bi&lt;/b&gt;&lt;/td&gt;&lt;td&gt;&lt;b&gt;ni&lt;/b&gt;&lt;/td&gt;&lt;td&gt;&lt;b&gt;beta1&lt;/b&gt;&lt;/td&gt;&lt;td&gt;&lt;b&gt;beta2&lt;/b&gt;&lt;/td&gt;&lt;/tr&gt;&lt;tr&gt;&lt;td&gt;b1&lt;/td&gt;&lt;td&gt;n3&lt;/td&gt;&lt;td&gt;b2&lt;/td&gt;&lt;td&gt;b1&lt;/td&gt;&lt;/tr&gt;&lt;tr&gt;&lt;td&gt;b2&lt;/td&gt;&lt;td&gt;n4&lt;/td&gt;&lt;td&gt;b3&lt;/td&gt;&lt;td&gt;b2&lt;/td&gt;&lt;/tr&gt;&lt;tr&gt;&lt;td&gt;b3&lt;/td&gt;&lt;td&gt;n1&lt;/td&gt;&lt;td&gt;b1&lt;/td&gt;&lt;td&gt;b4&lt;/td&gt;&lt;/tr&gt;&lt;tr&gt;&lt;td&gt;b4&lt;/td&gt;&lt;td&gt;n3&lt;/td&gt;&lt;td&gt;b5&lt;/td&gt;&lt;td&gt;b3&lt;/td&gt;&lt;/tr&gt;&lt;tr&gt;&lt;td&gt;b5&lt;/td&gt;&lt;td&gt;n1&lt;/td&gt;&lt;td&gt;b6&lt;/td&gt;&lt;td&gt;b5&lt;/td&gt;&lt;/tr&gt;&lt;tr&gt;&lt;td&gt;b6&lt;/td&gt;&lt;td&gt;n2&lt;/td&gt;&lt;td&gt;b4&lt;/td&gt;&lt;td&gt;b6&lt;/td&gt;&lt;/tr&gt;&lt;/tbody&gt;&lt;/table&gt;" style="text;strokeColor=none;align=left;fillColor=none;html=1;verticalAlign=middle;whiteSpace=wrap;rounded=0;" vertex="1" parent="1">
          <mxGeometry x="100" y="280" width="120" height="170" as="geometry" />
        </mxCell>
        <mxCell id="fnDxifPwlxCKZiobhOqW-20" value="b5" style="endArrow=classic;html=1;rounded=0;" edge="1" parent="1">
          <mxGeometry width="50" height="50" relative="1" as="geometry">
            <mxPoint x="420" y="81" as="sourcePoint" />
            <mxPoint x="565" y="81" as="targetPoint" />
          </mxGeometry>
        </mxCell>
        <mxCell id="fnDxifPwlxCKZiobhOqW-21" value="b6" style="endArrow=classic;html=1;rounded=0;" edge="1" parent="1" target="fnDxifPwlxCKZiobhOqW-26">
          <mxGeometry width="50" height="50" relative="1" as="geometry">
            <mxPoint x="575" y="91" as="sourcePoint" />
            <mxPoint x="575" y="222" as="targetPoint" />
          </mxGeometry>
        </mxCell>
        <mxCell id="fnDxifPwlxCKZiobhOqW-22" value="b4" style="endArrow=classic;html=1;rounded=0;" edge="1" parent="1">
          <mxGeometry width="50" height="50" relative="1" as="geometry">
            <mxPoint x="562" y="80" as="sourcePoint" />
            <mxPoint x="412" y="230" as="targetPoint" />
          </mxGeometry>
        </mxCell>
        <mxCell id="fnDxifPwlxCKZiobhOqW-23" value="b1" style="endArrow=classic;html=1;rounded=0;" edge="1" parent="1" source="fnDxifPwlxCKZiobhOqW-26">
          <mxGeometry width="50" height="50" relative="1" as="geometry">
            <mxPoint x="561" y="241" as="sourcePoint" />
            <mxPoint x="426" y="240" as="targetPoint" />
          </mxGeometry>
        </mxCell>
        <mxCell id="fnDxifPwlxCKZiobhOqW-24" value="b2" style="endArrow=classic;html=1;rounded=0;entryX=0.7;entryY=0.3;entryDx=0;entryDy=0;entryPerimeter=0;" edge="1" parent="1" target="fnDxifPwlxCKZiobhOqW-27">
          <mxGeometry width="50" height="50" relative="1" as="geometry">
            <mxPoint x="415" y="230" as="sourcePoint" />
            <mxPoint x="415" y="91" as="targetPoint" />
          </mxGeometry>
        </mxCell>
        <mxCell id="fnDxifPwlxCKZiobhOqW-25" value="b3" style="endArrow=classic;html=1;rounded=0;entryX=0.55;entryY=1.25;entryDx=0;entryDy=0;entryPerimeter=0;" edge="1" parent="1">
          <mxGeometry width="50" height="50" relative="1" as="geometry">
            <mxPoint x="430" y="240" as="sourcePoint" />
            <mxPoint x="575" y="88" as="targetPoint" />
          </mxGeometry>
        </mxCell>
        <mxCell id="fnDxifPwlxCKZiobhOqW-26" value="n3" style="shape=waypoint;sketch=0;fillStyle=solid;size=6;pointerEvents=1;points=[];fillColor=none;resizable=0;rotatable=0;perimeter=centerPerimeter;snapToPoint=1;spacingTop=20;" vertex="1" parent="1">
          <mxGeometry x="565" y="231" width="20" height="20" as="geometry" />
        </mxCell>
        <mxCell id="fnDxifPwlxCKZiobhOqW-27" value="n1" style="shape=waypoint;sketch=0;fillStyle=solid;size=6;pointerEvents=1;points=[];fillColor=none;resizable=0;rotatable=0;perimeter=centerPerimeter;snapToPoint=1;labelPadding=0;spacingTop=-20;" vertex="1" parent="1">
          <mxGeometry x="405" y="71" width="20" height="20" as="geometry" />
        </mxCell>
        <mxCell id="fnDxifPwlxCKZiobhOqW-28" value="n2&#xa;" style="shape=waypoint;sketch=0;fillStyle=solid;size=6;pointerEvents=1;points=[];fillColor=none;resizable=0;rotatable=0;perimeter=centerPerimeter;snapToPoint=1;spacingTop=-20;" vertex="1" parent="1">
          <mxGeometry x="565" y="71" width="20" height="20" as="geometry" />
        </mxCell>
        <mxCell id="fnDxifPwlxCKZiobhOqW-29" value="" style="endArrow=classic;html=1;rounded=0;" edge="1" parent="1" target="fnDxifPwlxCKZiobhOqW-30">
          <mxGeometry width="50" height="50" relative="1" as="geometry">
            <mxPoint x="415" y="241" as="sourcePoint" />
            <mxPoint x="415" y="91" as="targetPoint" />
          </mxGeometry>
        </mxCell>
        <mxCell id="fnDxifPwlxCKZiobhOqW-30" value="n4" style="shape=waypoint;sketch=0;fillStyle=solid;size=6;pointerEvents=1;points=[];fillColor=none;resizable=0;rotatable=0;perimeter=centerPerimeter;snapToPoint=1;spacingTop=20;" vertex="1" parent="1">
          <mxGeometry x="405" y="231" width="20" height="20" as="geometry" />
        </mxCell>
        <mxCell id="fnDxifPwlxCKZiobhOqW-31" value="F1" style="text;strokeColor=none;align=center;fillColor=none;html=1;verticalAlign=middle;whiteSpace=wrap;rounded=0;" vertex="1" parent="1">
          <mxGeometry x="490" y="180" width="60" height="30" as="geometry" />
        </mxCell>
        <mxCell id="fnDxifPwlxCKZiobhOqW-32" value="F2" style="text;strokeColor=none;align=center;fillColor=none;html=1;verticalAlign=middle;whiteSpace=wrap;rounded=0;" vertex="1" parent="1">
          <mxGeometry x="433" y="110" width="60" height="30" as="geometry" />
        </mxCell>
        <mxCell id="fnDxifPwlxCKZiobhOqW-33" value="&lt;br&gt;&lt;table&gt;&lt;tbody&gt;&lt;tr&gt;&lt;td&gt;&lt;b&gt;bi&lt;/b&gt;&lt;/td&gt;&lt;td&gt;&lt;b&gt;ni&lt;/b&gt;&lt;/td&gt;&lt;td&gt;&lt;b&gt;beta1&lt;/b&gt;&lt;/td&gt;&lt;td&gt;&lt;b&gt;beta2&lt;/b&gt;&lt;/td&gt;&lt;/tr&gt;&lt;tr&gt;&lt;td&gt;b1&lt;/td&gt;&lt;td&gt;n3&lt;/td&gt;&lt;td&gt;b3&lt;/td&gt;&lt;td&gt;b1&lt;/td&gt;&lt;/tr&gt;&lt;tr&gt;&lt;td&gt;b2&lt;/td&gt;&lt;td&gt;n4&lt;/td&gt;&lt;td&gt;b5&lt;/td&gt;&lt;td&gt;b2&lt;/td&gt;&lt;/tr&gt;&lt;tr&gt;&lt;td&gt;b3&lt;/td&gt;&lt;td&gt;n4&lt;/td&gt;&lt;td&gt;b6&lt;/td&gt;&lt;td&gt;b4&lt;/td&gt;&lt;/tr&gt;&lt;tr&gt;&lt;td&gt;b4&lt;/td&gt;&lt;td&gt;n2&lt;/td&gt;&lt;td&gt;b2&lt;/td&gt;&lt;td&gt;b3&lt;/td&gt;&lt;/tr&gt;&lt;tr&gt;&lt;td&gt;b5&lt;/td&gt;&lt;td&gt;n1&lt;/td&gt;&lt;td&gt;b4&lt;/td&gt;&lt;td&gt;b5&lt;/td&gt;&lt;/tr&gt;&lt;tr&gt;&lt;td&gt;b6&lt;/td&gt;&lt;td&gt;n2&lt;/td&gt;&lt;td&gt;b1&lt;/td&gt;&lt;td&gt;b6&lt;/td&gt;&lt;/tr&gt;&lt;/tbody&gt;&lt;/table&gt;" style="text;strokeColor=none;align=left;fillColor=none;html=1;verticalAlign=middle;whiteSpace=wrap;rounded=0;" vertex="1" parent="1">
          <mxGeometry x="433" y="280" width="120" height="170" as="geometry" />
        </mxCell>
      </root>
    </mxGraphModel>
  </diagram>
</mxfile>
